<svg width="20" height="18" viewBox="0 0 20 18" fill="none" xmlns="http://www.w3.org/2000/svg">
<mask id="path-1-inside-1_10_3" fill="white">
<path fill-rule="evenodd" clip-rule="evenodd" d="M7.21901 0.509609L6.72861 0.412064L6.63107 0.902456L5.91547 4.5H1H0.5V5V6V6.5H1H5.51765L4.52308 11.5H1H0.5V12V13V13.5H1H4.12526L3.50962 16.595L3.41208 17.0854L3.90247 17.183L4.88326 17.378L5.37365 17.4756L5.47119 16.9852L6.16444 13.5H12.1253L11.5096 16.595L11.4121 17.0854L11.9025 17.183L12.8833 17.378L13.3736 17.4756L13.4712 16.9852L14.1644 13.5H19H19.5V13V12V11.5H19H14.5623L15.5568 6.5H19H19.5V6V5V4.5H19H15.9547L16.5926 1.29264L16.6902 0.802244L16.1998 0.704699L15.219 0.509609L14.7286 0.412064L14.6311 0.902456L13.9155 4.5H7.95465L8.59264 1.29264L8.69018 0.802244L8.19979 0.704699L7.21901 0.509609ZM12.5231 11.5L13.5176 6.5H7.55683L6.56227 11.5H12.5231Z"/>
</mask>
<path d="M6.72861 0.412064L6.9237 -0.568722L5.94292 -0.763812L5.74783 0.216973L6.72861 0.412064ZM7.21901 0.509609L7.02391 1.49039L7.02391 1.49039L7.21901 0.509609ZM6.63107 0.902456L7.61185 1.09755L7.61185 1.09755L6.63107 0.902456ZM5.91547 4.5V5.5H6.73615L6.89626 4.69509L5.91547 4.5ZM0.5 4.5V3.5H-0.5V4.5H0.5ZM0.5 6.5H-0.5V7.5H0.5V6.5ZM5.51765 6.5L6.49843 6.69509L6.73615 5.5H5.51765V6.5ZM4.52308 11.5V12.5H5.34376L5.50387 11.6951L4.52308 11.5ZM0.5 11.5V10.5H-0.5V11.5H0.5ZM0.5 13.5H-0.5V14.5H0.5V13.5ZM4.12526 13.5L5.10604 13.6951L5.34376 12.5H4.12526V13.5ZM3.50962 16.595L2.52884 16.3999L2.52884 16.3999L3.50962 16.595ZM3.41208 17.0854L2.43129 16.8903L2.2362 17.8711L3.21699 18.0662L3.41208 17.0854ZM3.90247 17.183L3.70738 18.1637L3.70738 18.1637L3.90247 17.183ZM4.88326 17.378L5.07835 16.3973L5.07834 16.3973L4.88326 17.378ZM5.37365 17.4756L5.17856 18.4564L6.15934 18.6515L6.35443 17.6707L5.37365 17.4756ZM5.47119 16.9852L4.49041 16.7901L4.49041 16.7901L5.47119 16.9852ZM6.16444 13.5V12.5H5.34376L5.18366 13.3049L6.16444 13.5ZM12.1253 13.5L13.106 13.6951L13.3438 12.5H12.1253V13.5ZM11.5096 16.595L12.4904 16.7901L12.4904 16.7901L11.5096 16.595ZM11.4121 17.0854L10.4313 16.8903L10.2362 17.8711L11.217 18.0662L11.4121 17.0854ZM11.9025 17.183L11.7074 18.1637L11.7074 18.1637L11.9025 17.183ZM12.8833 17.378L13.0783 16.3973L13.0783 16.3973L12.8833 17.378ZM13.3736 17.4756L13.1786 18.4564L14.1593 18.6515L14.3544 17.6707L13.3736 17.4756ZM13.4712 16.9852L12.4904 16.7901L12.4904 16.7901L13.4712 16.9852ZM14.1644 13.5V12.5H13.3438L13.1837 13.3049L14.1644 13.5ZM19.5 13.5V14.5H20.5V13.5H19.5ZM19.5 11.5H20.5V10.5H19.5V11.5ZM14.5623 11.5L13.5815 11.3049L13.3438 12.5H14.5623V11.5ZM15.5568 6.5V5.5H14.7361L14.576 6.30491L15.5568 6.5ZM19.5 6.5V7.5H20.5V6.5H19.5ZM19.5 4.5H20.5V3.5H19.5V4.5ZM15.9547 4.5L14.9739 4.30491L14.7362 5.5H15.9547V4.5ZM16.5926 1.29264L15.6119 1.09755L15.6119 1.09755L16.5926 1.29264ZM16.6902 0.802244L17.671 0.997336L17.8661 0.0165492L16.8853 -0.178541L16.6902 0.802244ZM16.1998 0.704699L16.0047 1.68548L16.0047 1.68548L16.1998 0.704699ZM15.219 0.509609L15.4141 -0.471176L15.4141 -0.471176L15.219 0.509609ZM14.7286 0.412064L14.9237 -0.568722L13.9429 -0.763812L13.7478 0.216972L14.7286 0.412064ZM14.6311 0.902456L13.6503 0.707365L13.6503 0.707366L14.6311 0.902456ZM13.9155 4.5V5.5H14.7361L14.8963 4.69509L13.9155 4.5ZM7.95465 4.5L6.97387 4.30491L6.73615 5.5H7.95465V4.5ZM8.59264 1.29264L9.57342 1.48773L9.57342 1.48773L8.59264 1.29264ZM8.69018 0.802244L9.67097 0.997334L9.86606 0.0165494L8.88527 -0.178541L8.69018 0.802244ZM8.19979 0.704699L8.39488 -0.276086L8.39488 -0.276086L8.19979 0.704699ZM12.5231 11.5V12.5H13.3438L13.5039 11.6951L12.5231 11.5ZM13.5176 6.5L14.4984 6.69509L14.7362 5.5H13.5176V6.5ZM7.55683 6.5V5.5H6.73615L6.57604 6.30491L7.55683 6.5ZM6.56227 11.5L5.58148 11.3049L5.34376 12.5H6.56227V11.5ZM6.53352 1.39285L7.02391 1.49039L7.4141 -0.471176L6.9237 -0.568722L6.53352 1.39285ZM7.61185 1.09755L7.7094 0.607154L5.74783 0.216973L5.65028 0.707366L7.61185 1.09755ZM6.89626 4.69509L7.61185 1.09755L5.65028 0.707366L4.93469 4.30491L6.89626 4.69509ZM1 5.5H5.91547V3.5H1V5.5ZM0.5 5.5H1V3.5H0.5V5.5ZM1.5 5V4.5H-0.5V5H1.5ZM1.5 6V5H-0.5V6H1.5ZM1.5 6.5V6H-0.5V6.5H1.5ZM1 5.5H0.5V7.5H1V5.5ZM5.51765 5.5H1V7.5H5.51765V5.5ZM5.50387 11.6951L6.49843 6.69509L4.53686 6.30491L3.5423 11.3049L5.50387 11.6951ZM1 12.5H4.52308V10.5H1V12.5ZM0.5 12.5H1V10.5H0.5V12.5ZM1.5 12V11.5H-0.5V12H1.5ZM1.5 13V12H-0.5V13H1.5ZM1.5 13.5V13H-0.5V13.5H1.5ZM1 12.5H0.5V14.5H1V12.5ZM4.12526 12.5H1V14.5H4.12526V12.5ZM4.49041 16.7901L5.10604 13.6951L3.14447 13.3049L2.52884 16.3999L4.49041 16.7901ZM4.39286 17.2805L4.49041 16.7901L2.52884 16.3999L2.43129 16.8903L4.39286 17.2805ZM4.09756 16.2022L3.60717 16.1046L3.21699 18.0662L3.70738 18.1637L4.09756 16.2022ZM5.07834 16.3973L4.09756 16.2022L3.70738 18.1637L4.68817 18.3588L5.07834 16.3973ZM5.56874 16.4948L5.07835 16.3973L4.68816 18.3588L5.17856 18.4564L5.56874 16.4948ZM4.49041 16.7901L4.39286 17.2805L6.35443 17.6707L6.45198 17.1803L4.49041 16.7901ZM5.18366 13.3049L4.49041 16.7901L6.45198 17.1803L7.14523 13.6951L5.18366 13.3049ZM12.1253 12.5H6.16444V14.5H12.1253V12.5ZM12.4904 16.7901L13.106 13.6951L11.1445 13.3049L10.5288 16.3999L12.4904 16.7901ZM12.3929 17.2805L12.4904 16.7901L10.5288 16.3999L10.4313 16.8903L12.3929 17.2805ZM12.0976 16.2022L11.6072 16.1046L11.217 18.0662L11.7074 18.1637L12.0976 16.2022ZM13.0783 16.3973L12.0976 16.2022L11.7074 18.1637L12.6882 18.3588L13.0783 16.3973ZM13.5687 16.4948L13.0783 16.3973L12.6882 18.3588L13.1786 18.4564L13.5687 16.4948ZM12.4904 16.7901L12.3929 17.2805L14.3544 17.6707L14.452 17.1803L12.4904 16.7901ZM13.1837 13.3049L12.4904 16.7901L14.452 17.1803L15.1452 13.6951L13.1837 13.3049ZM19 12.5H14.1644V14.5H19V12.5ZM19.5 12.5H19V14.5H19.5V12.5ZM18.5 13V13.5H20.5V13H18.5ZM18.5 12V13H20.5V12H18.5ZM18.5 11.5V12H20.5V11.5H18.5ZM19 12.5H19.5V10.5H19V12.5ZM14.5623 12.5H19V10.5H14.5623V12.5ZM14.576 6.30491L13.5815 11.3049L15.5431 11.6951L16.5376 6.69509L14.576 6.30491ZM19 5.5H15.5568V7.5H19V5.5ZM19.5 5.5H19V7.5H19.5V5.5ZM18.5 6V6.5H20.5V6H18.5ZM18.5 5V6H20.5V5H18.5ZM18.5 4.5V5H20.5V4.5H18.5ZM19 5.5H19.5V3.5H19V5.5ZM15.9547 5.5H19V3.5H15.9547V5.5ZM15.6119 1.09755L14.9739 4.30491L16.9354 4.69509L17.5734 1.48773L15.6119 1.09755ZM15.7094 0.607153L15.6119 1.09755L17.5734 1.48773L17.671 0.997336L15.7094 0.607153ZM16.0047 1.68548L16.4951 1.78303L16.8853 -0.178541L16.3949 -0.276086L16.0047 1.68548ZM15.0239 1.49039L16.0047 1.68548L16.3949 -0.276086L15.4141 -0.471176L15.0239 1.49039ZM14.5335 1.39285L15.0239 1.49039L15.4141 -0.471176L14.9237 -0.568722L14.5335 1.39285ZM15.6119 1.09755L15.7094 0.607155L13.7478 0.216972L13.6503 0.707365L15.6119 1.09755ZM14.8963 4.69509L15.6119 1.09755L13.6503 0.707366L12.9347 4.30491L14.8963 4.69509ZM7.95465 5.5H13.9155V3.5H7.95465V5.5ZM7.61185 1.09755L6.97387 4.30491L8.93544 4.69509L9.57342 1.48773L7.61185 1.09755ZM7.7094 0.607155L7.61185 1.09755L9.57342 1.48773L9.67097 0.997334L7.7094 0.607155ZM8.0047 1.68548L8.49509 1.78303L8.88527 -0.178541L8.39488 -0.276086L8.0047 1.68548ZM7.02391 1.49039L8.0047 1.68548L8.39488 -0.276086L7.4141 -0.471176L7.02391 1.49039ZM13.5039 11.6951L14.4984 6.69509L12.5369 6.30491L11.5423 11.3049L13.5039 11.6951ZM13.5176 5.5H7.55683V7.5H13.5176V5.5ZM6.57604 6.30491L5.58148 11.3049L7.54305 11.6951L8.53761 6.69509L6.57604 6.30491ZM6.56227 12.5H12.5231V10.5H6.56227V12.5Z" fill="#ECECEC" mask="url(#path-1-inside-1_10_3)"/>
</svg>
