<svg width="24" height="24" viewBox="0 0 24 24" fill="none" xmlns="http://www.w3.org/2000/svg">
<path fill-rule="evenodd" clip-rule="evenodd" d="M12 3C16.9706 3 21 7.47715 21 13V15V16V20V21H20H16.6H16.5V20.9951C15.9947 20.9449 15.6 20.5185 15.6 20V16C15.6 15.4815 15.9947 15.0551 16.5 15.0049V15H16.6H20H20.1V13C20.1 8.02944 16.4735 4 12 4C7.52649 4 3.9 8.02944 3.9 13V15H4H5.7H7.4C7.95228 15 8.4 15.4477 8.4 16V20C8.4 20.5523 7.95228 21 7.4 21H5.7H4H3V20V16V15V13C3 7.47715 7.02944 3 12 3Z" fill="#CECECE"/>
</svg>
