<svg width="24" height="24" viewBox="0 0 24 24" fill="none" xmlns="http://www.w3.org/2000/svg">
<path fill-rule="evenodd" clip-rule="evenodd" d="M12 22C17.5228 22 22 17.5228 22 12C22 6.47715 17.5228 2 12 2C6.47715 2 2 6.47715 2 12C2 17.5228 6.47715 22 12 22ZM10.4261 14.858V15.0753H12.8487V14.858C12.853 14.4403 12.9063 14.0888 13.0085 13.8033C13.1151 13.5178 13.2749 13.2663 13.4879 13.049C13.7053 12.8317 13.9823 12.6229 14.3189 12.4226C14.7195 12.184 15.0668 11.9176 15.3608 11.6236C15.6548 11.3253 15.8828 10.9844 16.0448 10.6009C16.2109 10.2131 16.294 9.76989 16.294 9.27131C16.294 8.52557 16.1087 7.8885 15.7379 7.36009C15.3672 6.83168 14.8558 6.42898 14.2038 6.15199C13.5519 5.87074 12.8019 5.73012 11.9538 5.73012C11.1825 5.73012 10.4773 5.86861 9.83808 6.1456C9.19887 6.41833 8.68538 6.83381 8.2976 7.39205C7.90981 7.94603 7.70527 8.64915 7.68396 9.50142H10.2919C10.3047 9.15199 10.3899 8.86009 10.5476 8.62571C10.7053 8.38708 10.9077 8.2081 11.1548 8.08878C11.402 7.9652 11.6641 7.90341 11.9411 7.90341C12.2266 7.90341 12.4865 7.96307 12.7209 8.08239C12.9595 8.20171 13.1492 8.37216 13.2898 8.59375C13.4304 8.81535 13.5007 9.07316 13.5007 9.36719C13.5007 9.64418 13.4389 9.8956 13.3154 10.1215C13.1918 10.343 13.0256 10.5455 12.8168 10.7287C12.608 10.9119 12.3715 11.0888 12.1073 11.2592C11.7536 11.4808 11.451 11.728 11.1996 12.0007C10.9482 12.2734 10.7564 12.6314 10.6243 13.0746C10.4965 13.5178 10.4304 14.1122 10.4261 14.858ZM10.5987 18.7188C10.9013 19.017 11.2656 19.1662 11.6918 19.1662C11.9645 19.1662 12.2159 19.098 12.446 18.9617C12.6761 18.821 12.8615 18.6357 13.0021 18.4055C13.147 18.1712 13.2216 17.9134 13.2259 17.6321C13.2216 17.2145 13.0661 16.8565 12.7592 16.5582C12.4524 16.2599 12.0966 16.1108 11.6918 16.1108C11.2656 16.1108 10.9013 16.2599 10.5987 16.5582C10.3004 16.8565 10.1534 17.2145 10.1577 17.6321C10.1534 18.054 10.3004 18.4162 10.5987 18.7188Z" fill="#CECECE"/>
</svg>
