<svg width="24" height="24" viewBox="0 0 24 24" fill="none" xmlns="http://www.w3.org/2000/svg">
<path fill-rule="evenodd" clip-rule="evenodd" d="M4 5C4 4.44772 4.44772 4 5 4H19C19.5523 4 20 4.44772 20 5V15C20 15.5523 19.5523 16 19 16H15.9924C15.4443 16 15.0156 16.4659 14.7716 16.9567V16.9567C14.6209 17.26 14.3999 17.5356 14.1213 17.7678C13.8427 17.9999 13.512 18.1841 13.1481 18.3097C12.7841 18.4353 12.394 18.5 12 18.5C11.606 18.5 11.2159 18.4353 10.8519 18.3097C10.488 18.1841 10.1573 17.9999 9.87868 17.7678C9.6001 17.5356 9.37913 17.26 9.22836 16.9567V16.9567C8.98441 16.4659 8.55569 16 8.0076 16H5C4.44772 16 4 15.5523 4 15V5ZM2 3C2 2.44772 2.44772 2 3 2H4H20H21C21.5523 2 22 2.44772 22 3V4V20V21C22 21.5523 21.5523 22 21 22H20H4H3C2.44772 22 2 21.5523 2 21V20V4V3Z" fill="#CECECE"/>
</svg>
