<svg width="24" height="24" viewBox="0 0 24 24" fill="none" xmlns="http://www.w3.org/2000/svg">
<path fill-rule="evenodd" clip-rule="evenodd" d="M13.6647 7.49943C13.6647 9.43211 12.098 10.9989 10.1653 10.9989C8.23263 10.9989 6.66589 9.43211 6.66589 7.49943C6.66589 5.56675 8.23263 4 10.1653 4C12.098 4 13.6647 5.56675 13.6647 7.49943ZM5.356 12.1653C3.95557 12.9037 2.79481 13.9548 2 15.2081V19.1642H18.3307V15.2081C17.5358 13.9548 16.3751 12.9037 14.9747 12.1653H5.356ZM13.3731 10.9989C12.9951 10.9989 12.631 10.9389 12.29 10.828C13.6925 10.3719 14.7062 9.05406 14.7062 7.49943C14.7062 5.9448 13.6925 4.62694 12.29 4.17086C12.631 4.05995 12.9951 4 13.3731 4C15.3058 4 16.8726 5.56675 16.8726 7.49943C16.8726 9.43211 15.3058 10.9989 13.3731 10.9989ZM21.5385 19.1642H19.3722V15.2081C18.5774 13.9548 17.4166 12.9037 16.0162 12.1653H18.1825C19.5829 12.9037 20.7437 13.9548 21.5385 15.2081V19.1642Z" fill="#CECECE"/>
</svg>
