<svg width="24" height="24" viewBox="0 0 24 24" fill="none" xmlns="http://www.w3.org/2000/svg">
<path fill-rule="evenodd" clip-rule="evenodd" d="M8 6C8 3.79086 9.79086 2 12 2C14.2091 2 16 3.79086 16 6V12C16 14.2091 14.2091 16 12 16C9.79086 16 8 14.2091 8 12V6ZM12 17C14.7614 17 17 14.7614 17 12H18C18 14.973 15.8377 17.441 13 17.917V22H11V17.917C8.16229 17.441 6 14.973 6 12H7C7 14.7614 9.23858 17 12 17Z" fill="#CECECE"/>
<rect x="20.3848" y="2" width="2" height="26" transform="rotate(45 20.3848 2)" fill="#CB1717"/>
</svg>
