<svg width="24" height="24" viewBox="0 0 24 24" fill="none" xmlns="http://www.w3.org/2000/svg">
<path fill-rule="evenodd" clip-rule="evenodd" d="M10 3C10 2.44772 10.4477 2 11 2H13C13.5523 2 14 2.44772 14 3V4.25204C14.9667 4.50083 15.8626 4.92576 16.6516 5.49057L17.435 4.70711C17.8256 4.31658 18.4587 4.31658 18.8493 4.70711L20.2635 6.12132C20.654 6.51184 20.654 7.14501 20.2635 7.53553L19.2293 8.56969C19.515 9.17074 19.728 9.81306 19.8568 10.4853H21C21.5523 10.4853 22 10.933 22 11.4853V13.4853C22 14.0376 21.5523 14.4853 21 14.4853H19.6064C19.3489 15.2741 18.972 16.009 18.4971 16.6687L19.2635 17.435C19.654 17.8256 19.654 18.4587 19.2635 18.8492L17.8492 20.2635C17.4587 20.654 16.8256 20.654 16.435 20.2635L15.4103 19.2388C14.9615 19.4506 14.4898 19.6219 14 19.748V21C14 21.5523 13.5523 22 13 22H11C10.4477 22 10 21.5523 10 21V19.748C9.50289 19.62 9.02448 19.4455 8.56969 19.2293L7.53555 20.2635C7.14503 20.654 6.51186 20.654 6.12134 20.2635L4.70712 18.8492C4.3166 18.4587 4.3166 17.8256 4.70712 17.435L5.49057 16.6516C5.0215 15.9963 4.6489 15.2673 4.39355 14.4853H3C2.44772 14.4853 2 14.0376 2 13.4853V11.4853C2 10.933 2.44772 10.4853 3 10.4853H4.1432C4.2706 9.8205 4.48028 9.18496 4.76123 8.58966L3.70711 7.53553C3.31659 7.14501 3.31659 6.51184 3.70711 6.12132L5.12132 4.70711C5.51185 4.31658 6.14501 4.31658 6.53554 4.70711L7.33129 5.50286C8.12443 4.93193 9.02635 4.50264 10 4.25204V3ZM12 16C14.2091 16 16 14.2091 16 12C16 9.79086 14.2091 8 12 8C9.79086 8 8 9.79086 8 12C8 14.2091 9.79086 16 12 16Z" fill="#CECECE"/>
</svg>
