<svg width="24" height="24" viewBox="0 0 24 24" fill="none" xmlns="http://www.w3.org/2000/svg">
<path fill-rule="evenodd" clip-rule="evenodd" d="M9.12146 4L10.1022 4.19509L9.3454 8H16.3258L17.1215 4L18.1022 4.19509L17.3454 8H21V9H17.1465L16.5498 12H15.5302L16.1269 9H9.14649L7.95301 15H8.66666V16H7.7541L6.9808 19.8877L6.00001 19.6926L6.73451 16H3V15H6.93342L8.1269 9H3V8H8.32581L9.12146 4Z" fill="#ECECEC"/>
<path d="M10.1022 4.19509L10.5926 4.29264L10.6902 3.80224L10.1998 3.7047L10.1022 4.19509ZM9.12146 4L9.21901 3.50961L8.72861 3.41206L8.63107 3.90245L9.12146 4ZM9.3454 8L8.85501 7.90245L8.73615 8.5H9.3454V8ZM16.3258 8V8.5H16.7361L16.8162 8.09755L16.3258 8ZM17.1215 4L17.219 3.50961L16.7286 3.41206L16.6311 3.90245L17.1215 4ZM18.1022 4.19509L18.5926 4.29264L18.6902 3.80224L18.1998 3.7047L18.1022 4.19509ZM17.3454 8L16.855 7.90245L16.7362 8.5H17.3454V8ZM21 8H21.5V7.5H21V8ZM21 9V9.5H21.5V9H21ZM17.1465 9V8.5H16.7361L16.6561 8.90245L17.1465 9ZM16.5498 12V12.5H16.9601L17.0401 12.0975L16.5498 12ZM15.5302 12L15.0398 11.9025L14.9209 12.5H15.5302V12ZM16.1269 9L16.6173 9.09755L16.7361 8.5H16.1269V9ZM9.14649 9V8.5H8.73615L8.6561 8.90245L9.14649 9ZM7.95301 15L7.46262 14.9025L7.34376 15.5H7.95301V15ZM8.66666 15H9.16666V14.5H8.66666V15ZM8.66666 16V16.5H9.16666V16H8.66666ZM7.7541 16V15.5H7.34376L7.26371 15.9025L7.7541 16ZM6.9808 19.8877L6.88326 20.378L7.37365 20.4756L7.47119 19.9852L6.9808 19.8877ZM6.00001 19.6926L5.50962 19.595L5.41208 20.0854L5.90247 20.183L6.00001 19.6926ZM6.73451 16L7.2249 16.0975L7.34376 15.5H6.73451V16ZM3 16H2.5V16.5H3V16ZM3 15V14.5H2.5V15H3ZM6.93342 15V15.5H7.34376L7.42382 15.0975L6.93342 15ZM8.1269 9L8.61729 9.09755L8.73615 8.5H8.1269V9ZM3 9H2.5V9.5H3V9ZM3 8V7.5H2.5V8H3ZM8.32581 8V8.5H8.73615L8.8162 8.09755L8.32581 8ZM10.1998 3.7047L9.21901 3.50961L9.02391 4.49039L10.0047 4.68548L10.1998 3.7047ZM9.83579 8.09755L10.5926 4.29264L9.61185 4.09755L8.85501 7.90245L9.83579 8.09755ZM16.3258 7.5H9.3454V8.5H16.3258V7.5ZM16.6311 3.90245L15.8354 7.90245L16.8162 8.09755L17.6119 4.09755L16.6311 3.90245ZM18.1998 3.7047L17.219 3.50961L17.0239 4.49039L18.0047 4.68548L18.1998 3.7047ZM17.8358 8.09755L18.5926 4.29264L17.6119 4.09755L16.855 7.90245L17.8358 8.09755ZM21 7.5H17.3454V8.5H21V7.5ZM21.5 9V8H20.5V9H21.5ZM17.1465 9.5H21V8.5H17.1465V9.5ZM17.0401 12.0975L17.6369 9.09755L16.6561 8.90245L16.0594 11.9025L17.0401 12.0975ZM16.5498 11.5H15.5302V12.5H16.5498V11.5ZM16.0206 12.0975L16.6173 9.09755L15.6365 8.90245L15.0398 11.9025L16.0206 12.0975ZM16.1269 8.5H9.14649V9.5H16.1269V8.5ZM8.6561 8.90245L7.46262 14.9025L8.44341 15.0975L9.63688 9.09755L8.6561 8.90245ZM7.95301 15.5H8.66666V14.5H7.95301V15.5ZM8.16666 15V16H9.16666V15H8.16666ZM7.7541 16.5H8.66666V15.5H7.7541V16.5ZM7.47119 19.9852L8.2445 16.0975L7.26371 15.9025L6.49041 19.7901L7.47119 19.9852ZM5.90247 20.183L6.88326 20.378L7.07835 19.3973L6.09756 19.2022L5.90247 20.183ZM6.24412 15.9025L5.50962 19.595L6.49041 19.7901L7.2249 16.0975L6.24412 15.9025ZM3 16.5H6.73451V15.5H3V16.5ZM2.5 15V16H3.5V15H2.5ZM6.93342 14.5H3V15.5H6.93342V14.5ZM7.63651 8.90245L6.44303 14.9025L7.42382 15.0975L8.61729 9.09755L7.63651 8.90245ZM3 9.5H8.1269V8.5H3V9.5ZM2.5 8V9H3.5V8H2.5ZM8.32581 7.5H3V8.5H8.32581V7.5ZM8.63107 3.90245L7.83542 7.90245L8.8162 8.09755L9.61185 4.09755L8.63107 3.90245Z" fill="#ECECEC"/>
<path fill-rule="evenodd" clip-rule="evenodd" d="M11 13C10.4477 13 10 13.4477 10 14V19.875C10 20.4273 10.4477 20.875 11 20.875H11.552L12.1818 22L12.8117 20.875H21C21.5523 20.875 22 20.4273 22 19.875V14C22 13.4477 21.5523 13 21 13H11Z" fill="#ECECEC"/>
</svg>
